<?xml version="1.0" encoding="UTF-8" standalone="no"?>
<!-- Created with Inkscape (http://www.inkscape.org/) -->

<svg
   width="512"
   height="512"
   viewBox="0 0 135.46667 135.46667"
   version="1.1"
   id="svg1"
   inkscape:version="1.4.2 (ebf0e940d0, 2025-05-08)"
   sodipodi:docname="probing.svg"
   xmlns:inkscape="http://www.inkscape.org/namespaces/inkscape"
   xmlns:sodipodi="http://sodipodi.sourceforge.net/DTD/sodipodi-0.dtd"
   xmlns="http://www.w3.org/2000/svg"
   xmlns:svg="http://www.w3.org/2000/svg">
  <sodipodi:namedview
     id="namedview1"
     pagecolor="#ffffff"
     bordercolor="#000000"
     borderopacity="0.25"
     inkscape:showpageshadow="2"
     inkscape:pageopacity="0.0"
     inkscape:pagecheckerboard="true"
     inkscape:deskcolor="#00000000"
     inkscape:document-units="mm"
     inkscape:zoom="1.0075547"
     inkscape:cx="397.00077"
     inkscape:cy="263.50926"
     inkscape:window-width="2560"
     inkscape:window-height="1366"
     inkscape:window-x="0"
     inkscape:window-y="0"
     inkscape:window-maximized="1"
     inkscape:current-layer="layer1" />
  <defs
     id="defs1" />
  <g
     inkscape:label="图层 1"
     inkscape:groupmode="layer"
     id="layer1">
    <path
       style="fill:#000000;stroke-width:0.565578"
       d="m 54.584803,135.35325 c -10.4063,-0.18953 -21.50406,-0.77676 -24.44395,-1.29358 C 15.585293,131.50077 4.787727,120.95366 1.687697,106.26645 -0.42918099,96.237186 -0.60325399,42.605275 1.441417,30.388388 3.823818,16.153706 14.805213,4.4876795 28.447293,1.6988734 c 11.101,-2.2693382 67.77567,-2.2636439 78.628527,0.00799 14.92594,3.1240551 25.81881,15.7383256 27.41283,31.7448906 1.45641,14.624791 1.23845,60.683532 -0.3362,71.049576 -2.23149,14.68985 -12.95928,26.25207 -27.11109,29.21984 -6.21848,1.30406 -29.937977,2.04209 -52.456557,1.63214 z m 55.147427,-25.32356 c 3.85052,-1.86252 5.78323,-6.52187 4.46285,-10.759004 -0.62482,-2.00509 -1.30054,-2.72089 -11.14361,-11.804712 -1.32234,-1.220345 -2.59147,-2.404469 -2.82026,-2.631384 -0.2288,-0.226917 -0.886327,-0.849842 -1.461167,-1.384271 -0.91201,-0.8479 -1.01256,-1.025065 -0.78912,-1.39052 2.706517,-4.426884 4.729977,-10.454431 5.355077,-15.951801 l 0.1757,-1.544561 2.41881,-0.06227 c 2.98253,-0.0768 2.22089,-1.443204 5.38493,9.660594 1.60728,5.640549 4.05884,5.314421 5.80534,-0.772276 0.52233,-1.820373 1.32188,-4.543849 1.77676,-6.052183 l 0.82707,-2.742414 4.06212,-0.01598 4.06214,-0.01598 0.63014,-0.720407 c 0.86119,-0.984531 0.86073,-2.056426 -10e-4,-2.936928 l -0.63147,-0.644983 h -5.22227 -5.22224 l -0.57268,0.631632 c -0.40384,0.445402 -0.84903,1.567635 -1.50986,3.80623 -0.51542,1.746028 -0.97945,3.312922 -1.03114,3.481991 -0.15475,0.506142 -0.273,0.212571 -1.06571,-2.646299 -1.5606,-5.628267 -1.15433,-5.273554 -6.04007,-5.273554 h -3.72284 l -0.14988,-1.599718 C 99.272483,15.554493 36.752463,16.233691 32.221683,59.433174 l -0.13315,1.268746 h -2.43441 -2.43442 l -0.26503,-0.937694 c -2.53939,-8.982969 -3.4014,-11.538976 -4.03443,-11.962656 -0.71389,-0.477806 -2.07689,-0.430295 -2.73091,0.09519 -0.66856,0.537191 -0.64026,0.461158 -2.68852,7.22095 l -1.68432,5.558589 -4.03627,0.06802 c -4.723116,0.07958 -5.150031,0.251 -5.150031,2.067883 0,2.005822 0.807999,2.290109 6.530001,2.297557 6.07469,0.008 6.01807,0.06102 7.93581,-7.441702 0.36512,-1.428533 0.49027,-1.22033 1.62319,2.700636 1.41261,4.888968 1.07257,4.615175 5.85346,4.713002 l 3.76303,0.07699 v 1.085167 c 0,18.571125 21.04604,35.132308 40.77377,32.084994 4.52375,-0.69879 12.56373,-3.69192 13.33322,-4.96373 0.29944,-0.49489 0.77104,-0.14967 2.32692,1.70326 0.89164,1.06188 1.90024,2.23721 2.24133,2.61184 0.34108,0.37463 1.44641,1.66328 2.45626,2.863654 8.091337,9.61783 9.004187,10.32807 13.068767,10.16806 1.57057,-0.0618 2.1847,-0.19291 3.19641,-0.68229 z M 65.721423,86.471453 c -1.06268,-0.09433 -1.99864,-0.246509 -2.07996,-0.33819 -0.3158,-0.356098 -1.91702,-11.683743 -1.92616,-13.626391 -0.002,-0.43089 0.14119,-0.441301 6.06989,-0.441301 h 6.07199 l -0.14713,1.985854 c -0.50934,6.872795 -1.51692,12.057954 -2.38424,12.269589 -1.08495,0.264758 -3.56613,0.331356 -5.60434,0.150429 z m -8.05336,-2.168771 c -4.32387,-2.331251 -7.75107,-5.443164 -9.71032,-8.817025 -0.73389,-1.263727 -1.81499,-3.309628 -1.74992,-3.311533 2.63298,-0.07708 11.40179,-0.07572 11.40306,0.0016 0.0267,1.643012 1.11641,10.968079 1.43746,12.301286 0.14607,0.606382 0.0442,0.593508 -1.38028,-0.174496 z m 18.84991,0.463378 c -0.0489,-0.08099 0.14628,-1.680929 0.43414,-3.55541 0.28779,-1.874488 0.63987,-4.674142 0.78242,-6.221455 0.24031,-2.608466 0.29169,-2.813581 0.70544,-2.817164 7.31564,-0.06333 10.73192,-0.04403 10.83492,0.06117 0.50745,0.518338 -3.53882,6.373808 -5.70216,8.251783 -2.32008,2.014046 -6.7865,4.724435 -7.05476,4.28108 z M 44.661493,66.84727 c -0.54089,-2.576168 -0.48132,-7.247347 0.11855,-9.289497 0.10457,-0.356163 0.59779,-0.386135 6.35409,-0.386135 h 6.2407 l -0.0148,5.405945 -0.0148,5.405946 h -6.22237 -6.22236 z m 16.76161,-1.011809 c -0.17782,-2.743594 -0.17845,-4.845055 -0.002,-6.975652 l 0.13972,-1.688171 h 6.34449 6.34452 l -0.0578,5.350782 -0.0578,5.350783 -6.28559,0.05843 -6.28556,0.05845 z m 16.86276,-3.202606 0.0476,-5.350897 6.2479,-0.05845 6.24792,-0.05845 0.26648,1.91761 c 0.29772,2.142451 0.1757,6.747677 -0.21406,8.073438 l -0.24321,0.827439 -6.20019,1.09e-4 -6.20021,1.11e-4 z M 47.053633,51.208763 c 2.43401,-4.666266 6.25188,-8.4239 10.64394,-10.476003 1.52984,-0.714785 1.43714,-0.890378 0.99022,1.875915 -0.20597,1.274265 -0.55431,4.128931 -0.77434,6.343716 l -0.40003,4.026876 h -5.69166 -5.69167 z m 14.6619,1.274043 c 0.0148,-3.22756 1.51151,-12.990822 2.08843,-13.625195 0.38498,-0.423326 7.66497,-0.493731 8.07186,-0.07805 0.41729,0.426307 1.56609,7.925374 1.85316,12.096943 l 0.14479,2.102773 h -6.08022 -6.08024 z m 16.19763,-0.551627 c -10e-4,-1.336739 -0.75337,-7.817184 -1.1588,-9.984452 -0.36812,-1.967839 -0.39463,-1.918314 0.7728,-1.443091 4.18033,1.701687 8.09085,5.368716 10.82847,10.154188 1.44521,2.526302 1.86148,2.321443 -4.71715,2.321443 h -5.72433 z"
       id="path32584" />
  </g>
</svg>
